<svg width="20" height="20" viewBox="0 0 20 20" fill="none" xmlns="http://www.w3.org/2000/svg">
<g id="Group 10119">
<circle id="Ellipse 121" cx="10" cy="10" r="10" fill="#FF0000" fill-opacity="0.15"/>
<path id="Vector" d="M6 7.26201C6 7.06451 6.1635 6.90501 6.365 6.90501H8.759C8.762 6.48401 8.808 5.90751 9.225 5.50851C9.5685 5.18089 10.0253 4.9987 10.5 5.00001C10.9747 4.9987 11.4315 5.18089 11.775 5.50851C12.192 5.90751 12.238 6.48401 12.241 6.90501H14.635C14.8365 6.90501 15 7.06501 15 7.26201C14.9995 7.30941 14.9896 7.35625 14.971 7.39985C14.9524 7.44345 14.9253 7.48295 14.8914 7.51611C14.8575 7.54926 14.8175 7.57541 14.7735 7.59306C14.7295 7.61072 14.6824 7.61953 14.635 7.61901H6.365C6.31759 7.61953 6.27054 7.61072 6.22654 7.59306C6.18254 7.57541 6.14245 7.54926 6.10856 7.51611C6.07466 7.48295 6.04763 7.44345 6.029 7.39985C6.01038 7.35625 6.00052 7.30941 6 7.26201ZM10.3035 15H10.697C12.0505 15 12.727 15 13.167 14.5685C13.6075 14.137 13.6525 13.4285 13.7425 12.013L13.8725 9.973C13.9215 9.2045 13.9455 8.82 13.725 8.577C13.504 8.3335 13.131 8.3335 12.3855 8.3335H8.615C7.8695 8.3335 7.4965 8.3335 7.2755 8.577C7.055 8.82 7.0795 9.2045 7.128 9.9725L7.258 12.0125C7.348 13.429 7.393 14.137 7.833 14.5685C8.2725 15 8.95 15 10.3035 15Z" fill="#FF0000"/>
</g>
</svg>
