<svg width="20" height="20" viewBox="0 0 20 20" fill="none" xmlns="http://www.w3.org/2000/svg">
<g id="Group 10322">
<g id="Group 10120">
<circle id="Ellipse 121" cx="10" cy="10" r="10" fill="#4B4B5A" fill-opacity="0.15"/>
</g>
<g id="Group 10162">
<path id="Vector" d="M5.60684 11.6624L5.01482 14.2174C4.99439 14.3108 4.99509 14.4076 5.01686 14.5007C5.03864 14.5938 5.08093 14.6809 5.14066 14.7555C5.20038 14.8302 5.27603 14.8906 5.36208 14.9322C5.44812 14.9739 5.54239 14.9958 5.638 14.9964C5.68255 15.0009 5.72743 15.0009 5.77198 14.9964L8.34261 14.4044L13.2782 9.48749L10.5237 6.73926L5.60684 11.6624Z" fill="#4B4B5A"/>
<path id="Vector_2" d="M14.8298 7.02615L12.9914 5.18776C12.8706 5.06751 12.707 5 12.5365 5C12.366 5 12.2025 5.06751 12.0816 5.18776L11.0596 6.20978L13.8109 8.96113L14.8329 7.93911C14.8927 7.879 14.9401 7.80768 14.9723 7.72924C15.0046 7.6508 15.021 7.56678 15.0207 7.48198C15.0204 7.39719 15.0034 7.31328 14.9706 7.23506C14.9379 7.15684 14.89 7.08585 14.8298 7.02615Z" fill="#4B4B5A"/>
</g>
</g>
</svg>
