<svg width="238" height="170" viewBox="0 0 238 170" fill="none" xmlns="http://www.w3.org/2000/svg">
<mask id="mask0_1465_210" style="mask-type:luminance" maskUnits="userSpaceOnUse" x="0" y="0" width="238" height="170">
<path d="M0 3.05176e-05H237.809V170H0V3.05176e-05Z" fill="white"/>
</mask>
<g mask="url(#mask0_1465_210)">
<path d="M177.261 75.0643C177.261 106.219 141.859 131.475 98.1877 131.475C54.5172 131.475 19.1152 106.219 19.1152 75.0643C19.1152 43.9094 54.5172 18.6532 98.1877 18.6532C141.859 18.6532 177.261 43.9094 177.261 75.0643Z" fill="#F5F5FF"/>
</g>
<mask id="mask1_1465_210" style="mask-type:luminance" maskUnits="userSpaceOnUse" x="0" y="0" width="238" height="170">
<path d="M0 3.05176e-05H237.809V170H0V3.05176e-05Z" fill="white"/>
</mask>
<g mask="url(#mask1_1465_210)">
<path d="M219.645 149.501C219.645 152.269 203.484 154.513 183.548 154.513C163.613 154.513 147.452 152.269 147.452 149.501C147.452 146.733 163.613 144.489 183.548 144.489C203.484 144.489 219.645 146.733 219.645 149.501Z" fill="#DFDFEB"/>
<path d="M173.1 151.919C173.1 154.989 143.904 157.477 107.89 157.477C71.8752 157.477 42.6797 154.989 42.6797 151.919C42.6797 148.85 71.8752 146.362 107.89 146.362C143.904 146.362 173.1 148.85 173.1 151.919Z" fill="#DFDFEB"/>
<path d="M120.358 53.4139C120.358 53.4139 119.151 60.4237 110.358 69.4462C110.358 69.4462 109.387 68.2426 111.068 63.2562C112.749 58.2694 119.856 51.7159 120.358 53.4139Z" fill="#7E9E6E"/>
<path d="M120.357 53.4139C120.357 53.4139 112.445 59.078 110.357 69.4463C110.357 69.4463 109.953 73.0023 111.17 76.0831" stroke="black" stroke-width="1.33333" stroke-miterlimit="10" stroke-linecap="round"/>
<path d="M99.0905 59.0764C99.0905 59.0764 101.31 57.3931 97.4914 53.189C93.8638 49.195 90.0232 45.6138 82.5166 44.3014C82.5166 44.3014 84.7822 54.4776 89.6736 56.9031C94.565 59.3287 99.0905 59.0764 99.0905 59.0764Z" fill="#7E9E6E"/>
<path d="M80.8698 66.5587C80.8698 66.5587 88.7015 68.2686 101.984 63.8323C101.984 63.8323 101.161 62.458 95.2256 61.9959C89.2902 61.5335 79.3237 65.417 80.8698 66.5587Z" fill="#7E9E6E"/>
<path d="M80.8711 66.5587C80.8711 66.5587 90.2676 61.5804 101.986 63.8323C101.986 63.8323 103.191 64.1342 104.419 65.775" stroke="black" stroke-width="1.33333" stroke-miterlimit="10" stroke-linecap="round"/>
<path d="M87.3616 73.6602C87.3616 73.6602 95.7426 79.1814 109.025 74.7454C109.025 74.7454 106.442 70.0684 100.507 69.6063C94.5716 69.1439 85.8158 72.5181 87.3616 73.6602Z" fill="#7E9E6E"/>
<path d="M87.3613 73.6602C87.3613 73.6602 96.3947 69.4418 109.025 74.7454C109.025 74.7454 110.511 75.4071 111.738 77.0479" stroke="black" stroke-width="1.33333" stroke-miterlimit="10" stroke-linecap="round"/>
<path d="M115.73 46.7764C115.73 46.7764 118.204 46.4799 112.168 52.0678C106.468 57.3446 107.193 57.3858 107.193 57.3858C107.193 57.3858 109.355 49.49 115.73 46.7764Z" fill="black"/>
<path d="M103.047 60.0586C103.047 60.0586 104.894 60.7716 108.226 57.7112C111.558 54.6506 112.8 47.8305 115.731 46.7765C115.731 46.7765 108.38 49.1531 103.047 60.0586Z" fill="#7E9E6E"/>
<path d="M115.162 83.4923C111.404 75.9157 106.186 67.3083 99.0905 59.0765C99.0905 59.0765 97.3477 56.7917 91.2918 50.8693C85.2361 44.9472 82.5166 44.3015 82.5166 44.3015" stroke="black" stroke-width="1.33333" stroke-miterlimit="10" stroke-linecap="round"/>
<path d="M114.862 47.1396C114.862 47.1396 107.867 50.1945 103.047 60.0586C101.879 62.4481 103.276 64.3395 104.418 65.775" stroke="black" stroke-width="1.33333" stroke-miterlimit="10" stroke-linecap="round"/>
<path d="M178.649 128.912C178.649 128.912 172.802 133.23 159.331 130.061C159.331 130.061 159.367 127.899 164.201 125.819C169.036 123.739 179.413 126.91 178.649 128.912Z" fill="#7E9E6E"/>
<path d="M178.231 128.518C178.231 128.518 169.004 125.432 159.391 129.827C159.391 129.827 156.277 131.587 154.5 134.382" stroke="black" stroke-width="1.33333" stroke-miterlimit="10" stroke-linecap="round"/>
<path d="M159.155 119.413C159.155 119.413 161.82 120.223 162.979 114.662C164.081 109.378 164.723 104.164 161.378 97.3115C161.378 97.3115 154.476 105.12 155.385 110.507C156.294 115.895 159.155 119.413 159.155 119.413Z" fill="#7E9E6E"/>
<path d="M178.97 121.498C178.97 121.498 181.026 122.905 172.807 123.131C165.046 123.344 165.564 123.852 165.564 123.852C165.564 123.852 172.388 119.337 178.97 121.498Z" fill="black"/>
<path d="M160.685 123.13C160.685 123.13 161.605 124.884 166.127 124.778C170.648 124.672 176.071 120.36 178.97 121.498C178.97 121.498 171.875 118.44 160.685 123.13Z" fill="#7E9E6E"/>
<path d="M148.838 146.767C152.761 139.274 156.661 129.994 159.155 119.413C159.155 119.413 159.98 116.66 161.216 108.277C162.452 99.8938 161.379 97.3115 161.379 97.3115" stroke="black" stroke-width="1.33333" stroke-miterlimit="10" stroke-linecap="round"/>
<path d="M178.078 121.199C178.078 121.199 170.804 118.886 160.685 123.13C158.234 124.158 157.538 125.781 156.502 128.791" stroke="black" stroke-width="1.33333" stroke-miterlimit="10" stroke-linecap="round"/>
<path d="M85.479 78.9927C83.5867 78.9927 81.7549 78.3283 80.3019 77.1149L76.2711 73.7485C74.8204 72.5371 73.0973 71.8881 71.3321 71.8881H51.3263C49.5108 71.8881 48.0391 73.3609 48.0391 75.1779V78.9927V147.662C48.0391 150.797 50.5789 153.339 53.7115 153.339H153.439C155.875 153.339 157.85 151.362 157.85 148.923V83.4083C157.85 80.9695 155.875 78.9927 153.439 78.9927H85.479Z" fill="#0c101c"/>
<path d="M157.85 149.293C157.85 149.293 151.063 136.552 150.384 135.089L131.835 97.2697C131.369 96.265 130.362 95.6221 129.255 95.6221H60.3266C57.8207 95.6221 54.1965 94.3073 52.2727 92.7008L49.491 90.3779C48.0407 89.1665 46.3172 88.5174 44.552 88.5174H25.5134C23.4869 88.5174 22.1103 90.5778 22.8849 92.4519L45.9065 148.178C47.1971 151.301 50.2414 153.339 53.619 153.339H156.605C157.276 153.339 157.896 152.763 157.896 152.091L157.85 149.293Z" fill="#2b3862"/>
<path d="M129.813 99.218L157.032 152.17" stroke="black" stroke-width="1.33333" stroke-miterlimit="10" stroke-linejoin="round"/>
<path d="M118.599 108.343H95.1534C94.514 108.343 93.9188 108.021 93.5757 107.49C92.7834 106.263 93.6776 104.657 95.1534 104.657H118.599C119.238 104.657 119.833 104.979 120.177 105.511C120.969 106.738 120.074 108.343 118.599 108.343Z" stroke="black" stroke-width="1.33333" stroke-miterlimit="10" stroke-linejoin="round"/>
<path d="M74.7402 126.543L92.9951 137.427" stroke="black" stroke-width="1.33333" stroke-miterlimit="10" stroke-linecap="round" stroke-linejoin="round"/>
<path d="M89.6649 126.018L78.1943 137.493" stroke="black" stroke-width="1.33333" stroke-miterlimit="10" stroke-linecap="round" stroke-linejoin="round"/>
<path d="M89.57 123.1C96.2775 126.418 99.0606 133.045 95.7863 137.904C92.5117 142.763 84.4197 144.012 77.7121 140.694C71.0046 137.377 68.2215 130.749 71.4961 125.89C74.7704 121.032 82.8624 119.783 89.57 123.1Z" stroke="black" stroke-width="1.33333" stroke-miterlimit="10" stroke-linecap="round" stroke-linejoin="round"/>
<path d="M178.145 79.0283C178.583 77.1345 176.569 74.7736 174.663 75.1459C173.111 75.4488 172.339 75.8211 172.089 75.9034C171.602 76.0642 167.964 75.8276 167.547 76.4338C167.246 76.8727 169.144 77.3804 170.358 77.5011C170.608 77.5259 170.681 77.853 170.468 77.9852C169.275 78.7254 166.901 80.2299 166.698 80.6015C166.428 81.1 165.194 83.0366 165.542 83.2518C165.889 83.4667 166.94 82.4994 167.623 81.8123C168.306 81.1255 170.302 80.5417 170.302 80.5417C170.302 80.5417 166.832 84.0277 166.374 84.994C165.693 86.4335 167.669 85.8022 167.669 85.8022C167.36 86.6154 168.981 86.4373 169.364 86.1306C170.121 85.5244 172.461 82.6986 172.468 82.9866C172.475 83.2746 170.051 86.353 170.296 87.0724C170.542 87.7915 171.522 86.8891 172.089 86.1306C172.657 85.3717 174.322 83.2518 174.322 83.2518C174.322 83.2518 176.215 81.869 177.794 79.4816C177.807 79.4622 178.14 79.0508 178.145 79.0283Z" fill="#DB9C7F"/>
<path d="M167.756 85.724L171.067 81.7746" stroke="black" stroke-width="1.33333" stroke-miterlimit="10" stroke-linecap="round"/>
<path d="M153.252 67.8256L165.163 60.3881C165.237 60.3398 165.307 60.2865 165.373 60.2283L169.302 56.1833C170.156 55.4336 171.476 55.6081 172.106 56.555L174.031 59.445C174.439 60.057 174.453 60.8505 174.068 61.4768L171.303 65.9658C171.099 66.2963 170.802 66.5544 170.445 66.7074C168.221 67.6607 159.723 71.2525 154.654 72.6856C153.395 73.0416 152.172 72.0161 152.282 70.7115L152.407 69.2424C152.455 68.6651 152.767 68.1425 153.252 67.8256Z" fill="#2b3862"/>
<path d="M180.684 142.141L180.054 146.423C180.054 146.423 168.251 150.961 169.346 151.026C170.441 151.092 187.403 150.104 187.403 150.104L186.405 142.33L180.684 142.141Z" fill="black"/>
<path d="M183.973 72.8368C183.973 72.8368 184.913 81.8971 185.619 82.3677C186.324 82.8383 187.265 83.0735 187.265 83.0735L185.736 72.7192L183.973 72.8368Z" stroke="#424242" stroke-width="1.33333" stroke-miterlimit="10"/>
<path d="M202.611 66.6093C202.611 66.6093 207.395 76.3591 206.006 81.7913L179.486 78.1407L180.04 68.0118L202.611 66.6093Z" fill="black"/>
<path d="M203.34 68.5843C203.34 68.5843 199.591 75.5316 192.418 76.0871" stroke="#424242" stroke-width="1.33333" stroke-miterlimit="10" stroke-linecap="round"/>
<path d="M197.339 74.6052C197.339 74.6052 198.792 79.1085 203.01 79.2013" stroke="#424242" stroke-width="1.33333" stroke-miterlimit="10" stroke-linecap="round"/>
<path d="M179.486 78.1406C179.486 78.1406 172.381 103.456 172.197 111.606L177.389 143.002C177.389 143.002 182.341 145.467 187.499 143.475C187.71 143.394 184.884 127.191 184.685 110.509L199.512 79.4605L179.486 78.1406Z" fill="black"/>
<path d="M206.124 80.7294L205.08 111.278L216.758 143.216C216.758 143.216 211.872 147.348 205.698 143.588L193.019 113.177L194.32 91.0495L188.794 87.7008L187.971 78.1172L206.124 80.7294Z" fill="black"/>
<path d="M185.6 75.1459L191.23 79.3911L199.301 70.3733L179.696 73.1763L184.494 79.5424L185.6 75.1459Z" fill="white"/>
<path d="M208.505 141.624L207.487 145.319C207.487 145.319 200.04 153.402 201.138 153.402C202.235 153.402 214.462 148.398 214.462 148.398L212.895 140.7L208.505 141.624Z" fill="black"/>
<path d="M201.658 70.9309C201.658 70.9309 204.879 78.8536 202.558 112.089C202.558 112.089 210.693 130.006 214.91 144.176" stroke="#424242" stroke-width="1.33333" stroke-miterlimit="10" stroke-linecap="round"/>
<path d="M189.822 88.4925L181.704 111.123L185.185 144.176" stroke="#424242" stroke-width="1.33333" stroke-miterlimit="10" stroke-linecap="round"/>
<path d="M154.418 72.2935C154.418 72.2935 154.575 73.0861 152.822 73.6913C151.069 74.2965 150.037 74.1044 150.037 74.1044C150.037 74.1044 146.104 69.4613 145.929 69.2974C145.754 69.1332 146.052 67.3479 147.215 66.6329C147.922 66.1987 150.662 66.9066 152.706 67.5294C154.131 67.964 155.01 69.392 154.771 70.8631C154.677 71.4415 154.559 71.9777 154.418 72.2935Z" fill="#DB9C7F"/>
<path d="M151.191 71.0613C151.191 71.0613 147.975 70.5942 146.616 69.4729C146.616 69.4729 144.585 69.0632 144.154 69.3195C143.723 69.5762 143.369 69.94 142.435 70.0978C141.501 70.2555 141.783 69.633 142.764 68.7504C143.044 68.4981 143.794 67.5913 144.444 67.4686C145.32 67.3037 147.215 66.6328 147.215 66.6328L151.016 71.1814" fill="#DB9C7F"/>
<path d="M150.037 74.1043C150.037 74.1043 148.733 74.923 148.275 74.9006C147.816 74.8785 147.383 74.6048 147.271 73.8507C147.271 73.8507 144.842 74.2967 145.612 72.4577C145.612 72.4577 144.145 72.2197 144.106 71.2612C144.106 71.2612 142.803 70.6118 143.088 69.5701C143.373 68.5283 147.461 68.6228 147.461 68.6228L151.798 70.8267L150.037 74.1043Z" fill="#DB9C7F"/>
<path d="M149.116 74.2784C149.116 74.2784 150.355 73.1792 150.286 72.7382C150.217 72.2972 149.984 72.0548 149.703 72.1395C149.326 72.2527 147.89 73.3485 147.271 73.8507" stroke="#1A1C30" stroke-width="1.04" stroke-miterlimit="10" stroke-linecap="round" stroke-linejoin="round"/>
<path d="M145.611 72.4576C145.611 72.4576 148.911 71.9422 148.941 71.4529C148.972 70.964 148.741 70.3183 148.052 70.4557C147.233 70.6192 144.884 71.1819 144.105 71.1666" stroke="#1A1C30" stroke-width="1.04" stroke-miterlimit="10" stroke-linecap="round" stroke-linejoin="round"/>
<path d="M149.702 72.1394C149.702 72.1394 150.309 71.7627 150.069 71.3418C149.829 70.9209 149.502 70.773 148.8 70.9555" stroke="#1A1C30" stroke-width="1.04" stroke-miterlimit="10" stroke-linecap="round" stroke-linejoin="round"/>
<path d="M144.039 69.7877C144.039 69.7877 144.219 69.5527 144.475 69.3127" stroke="#1A1C30" stroke-width="1.04" stroke-miterlimit="10" stroke-linecap="round" stroke-linejoin="round"/>
<path d="M151.195 75.9104L151.138 75.9423C150.694 76.1922 150.131 76.0345 149.881 75.5898L141.304 60.3261L142.97 59.3884L151.547 74.6524C151.797 75.0971 151.639 75.6601 151.195 75.9104Z" fill="#961515"/>
<path d="M145.544 62.7794L146.264 64.0606C146.459 64.408 146.371 64.8283 146.066 64.9996L144.511 65.8751C144.207 66.0462 143.802 65.9034 143.607 65.5559L142.855 64.2193" fill="#961515"/>
<path d="M142.215 50.2434C139.239 44.7194 135.51 40.9168 133.14 40.739L133.218 40.2144L131.979 41.0226C129.85 42.4733 130.982 48.9537 134.506 55.4974C138.03 62.0407 142.613 66.1689 144.742 64.7182L145.907 63.9413L145.571 63.4921C146.39 60.9578 145.112 55.6232 142.215 50.2434Z" fill="#961515"/>
<path d="M143.454 49.4353C146.978 55.9786 148.11 62.4593 145.981 63.9101C143.852 65.3609 139.27 61.2326 135.745 54.6893C132.221 48.1456 131.09 41.6652 133.218 40.2145C135.347 38.7637 139.93 42.892 143.454 49.4353Z" fill="#2b3862"/>
<path d="M142.278 50.2369C145.147 55.562 146.272 60.6963 144.794 61.7044C143.314 62.7125 139.79 59.2126 136.922 53.8875C134.054 48.5624 132.928 43.4281 134.407 42.42C135.886 41.4119 139.41 44.9115 142.278 50.2369Z" fill="#D3DDF7"/>
<path d="M151.191 71.0613C151.191 71.0613 147.975 70.5942 146.616 69.4729C146.616 69.4729 144.585 69.0632 144.154 69.3195C143.723 69.5762 143.369 69.94 142.435 70.0978C141.501 70.2555 141.783 69.633 142.764 68.7504C143.044 68.4981 143.794 67.5913 144.444 67.4686C145.32 67.3037 147.215 66.6328 147.215 66.6328L151.016 71.1814" fill="#DB9C7F"/>
<path d="M151.192 71.0613C151.192 71.0613 147.976 70.5942 146.617 69.4729C146.617 69.4729 144.586 69.0632 144.155 69.3195C143.723 69.5762 143.369 69.94 142.436 70.0978" stroke="#1A1C30" stroke-width="1.04" stroke-miterlimit="10" stroke-linecap="round" stroke-linejoin="round"/>
<path d="M142.278 50.2369C139.41 44.9115 135.886 41.4119 134.407 42.42C134.29 42.4995 134.191 42.6077 134.106 42.7369C135.816 42.8409 138.807 46.0903 141.302 50.7224C143.944 55.6273 145.106 60.3672 144.118 61.8731C144.373 61.8887 144.601 61.8357 144.794 61.7044C146.272 60.6963 145.147 55.562 142.278 50.2369Z" fill="#961515"/>
<path d="M140.281 48.1499C141.806 50.9827 142.405 53.714 141.618 54.2501C140.832 54.7863 138.957 52.9248 137.431 50.0919C135.906 47.2591 135.307 44.5278 136.093 43.9917C136.88 43.4555 138.755 45.317 140.281 48.1499Z" fill="white"/>
<path d="M197.333 57.2675L194.967 48.8179C194.098 45.7157 192.576 42.8458 190.564 40.3308C187.001 35.8761 177.641 36.2814 177.641 36.2814L170.44 41.4674C170.417 41.4796 170.396 41.4915 170.374 41.5038C166.134 43.8457 165.355 47.4575 165.466 53.0254L165.728 60.5431L170.603 55.8834L171.834 57.5722C171.828 57.5236 171.824 57.4783 171.82 57.4345L172.403 58.3521L171.834 57.5722C172.006 59.1233 172.815 63.0734 176.572 64.9189L178.712 68.29L178.145 72.949C198.235 80.2604 203.237 65.9039 203.237 65.9039L197.333 57.2675Z" fill="#2b3862"/>
<path d="M169.572 55.1085L172.203 58.3283C172.203 58.3283 171.843 63.2903 176.839 64.8811" stroke="black" stroke-width="1.33333" stroke-miterlimit="10" stroke-linecap="round"/>
<path d="M189.537 61.6614L174.246 74.9945C174.246 74.9945 177.274 79.2367 178.636 79.3883L196.954 67.7219" fill="#2b3862"/>
<path d="M178.789 70.9036C178.789 70.9036 187.115 61.5097 189.992 60.1463" stroke="black" stroke-width="1.33333" stroke-miterlimit="10" stroke-linecap="round"/>
<path d="M185.582 51.5291C185.582 51.5291 185.98 53.6313 188.648 61.0174" stroke="black" stroke-width="1.33333" stroke-miterlimit="10" stroke-linecap="round"/>
<path d="M180.756 78.1761C180.756 78.1761 197.863 67.2672 198.014 64.0855C198.166 60.9038 193.7 46.1314 193.7 46.1314" stroke="black" stroke-width="1.33333" stroke-miterlimit="10" stroke-linecap="round"/>
<path d="M182.629 62.7219C182.629 62.7219 186.746 63.1099 188.022 59.3699" stroke="black" stroke-width="1.33333" stroke-miterlimit="10" stroke-linecap="round"/>
<path d="M165.955 59.9369C165.955 59.9369 167.09 58.8007 168.226 60.0886" stroke="black" stroke-width="1.33333" stroke-miterlimit="10" stroke-linecap="round"/>
<path d="M152.484 67.4378L154.907 66.3015C154.907 66.3015 157.859 69.5209 156.799 72.2862L153.847 73.1572C153.847 73.1572 155.209 70.1272 152.484 67.4378Z" fill="white"/>
<path d="M175.212 73.2899C175.212 73.2899 178.391 74.6536 180.662 78.5738L178.221 80.4489C178.221 80.4489 175.212 76.1306 173.111 75.4489L175.212 73.2899Z" fill="white"/>
<path d="M172.543 35.7908L182.573 36.5293C182.573 36.5293 182.953 42.0505 176.897 46.9197L174.177 44.2748L172.695 47.495C172.695 47.495 170.393 46.1992 170.083 42.48L170.572 37.9644L172.543 35.7908Z" fill="white"/>
<path d="M177.641 36.2814C178.006 36.5935 178.18 37.0743 178.095 37.5479C177.773 39.3448 176.799 43.6941 174.847 44.2408C172.379 44.932 170.839 40.0523 170.839 40.0523L172.07 31.5295L177.641 36.2814Z" fill="#DB9C7F"/>
<path d="M169.82 38.3024L169.789 39.5434C169.766 39.5563 169.345 43.2194 170.575 43.3609C175.716 42.4303 176.04 37.552 176.48 32.7104C176.48 32.7104 169.32 37.3357 169.82 38.3024Z" fill="black"/>
<path d="M161.261 29.1643C161.261 29.1643 160.008 41.1146 167.426 43.1709C174.844 45.2276 176.621 33.1202 176.365 28.9331C176.109 24.746 174.245 23.1888 169.045 23.0011C161.354 22.7237 161.261 29.1643 161.261 29.1643Z" fill="#DB9C7F"/>
<path d="M167.925 34.9385C167.946 35.3686 167.742 35.7286 167.469 35.7426C167.196 35.7565 166.957 35.4189 166.936 34.9888C166.915 34.5587 167.119 34.1986 167.392 34.1847C167.665 34.1707 167.904 34.5084 167.925 34.9385Z" fill="black"/>
<path d="M168.739 32.7369C168.739 32.7369 166.288 33.8045 166.048 31.9502" stroke="black" stroke-width="1.33333" stroke-miterlimit="10" stroke-linecap="round"/>
<path d="M163.074 32.7417C163.074 32.7417 162.265 34.1483 161.334 33.5234" stroke="black" stroke-width="1.33333" stroke-miterlimit="10" stroke-linecap="round"/>
<path d="M161.771 35.2401C161.771 35.2401 162.235 35.0905 162.914 35.4496" stroke="black" stroke-width="1.33333" stroke-miterlimit="10" stroke-linecap="round"/>
<path d="M169.035 39.6977C169.035 39.6977 169.703 39.0582 170.255 38.9127" stroke="black" stroke-width="1.33333" stroke-miterlimit="10" stroke-linecap="round"/>
<path d="M164.022 36.6169C164.022 36.6169 163.596 37.5859 164.68 38.051" stroke="black" stroke-width="1.33333" stroke-miterlimit="10" stroke-linecap="round"/>
<path d="M161.173 31.7334C161.173 31.7334 161.299 28.2342 162.848 26.2571C162.848 26.2571 164.978 31.1024 174.158 32.0908L176.83 31.5288C176.83 31.5288 177.924 25.9181 174.09 23.7088C170.256 21.4991 164.387 22.7204 162.5 24.7067C159.299 28.0747 161.173 31.7334 161.173 31.7334Z" fill="black"/>
<path d="M172.376 31.4512L173.964 34.5908L175.087 31.0636L172.376 31.4512Z" fill="black"/>
<path d="M177.926 34.2647C177.469 35.9348 176.156 37.0388 174.994 36.7307C173.832 36.4224 173.261 34.8186 173.718 33.1485C174.176 31.4788 175.489 30.3744 176.651 30.6828C177.812 30.9909 178.384 32.5946 177.926 34.2647Z" fill="#DB9C7F"/>
<path d="M176.76 32.8106C176.76 32.8106 175.453 31.6852 174.739 33.7429C174.739 33.7429 175.503 34.5538 175.021 35.1903C175.021 35.1903 175.774 35.3613 176.145 34.6969" stroke="black" stroke-width="1.33333" stroke-miterlimit="10" stroke-linecap="round" stroke-linejoin="round"/>
<path d="M176.194 33.5979C176.194 33.5979 176.121 33.1406 175.613 32.619" stroke="black" stroke-width="1.33333" stroke-miterlimit="10" stroke-linecap="round" stroke-linejoin="round"/>
<path d="M176.831 36.6744C176.831 37.3006 176.324 37.8083 175.698 37.8083C175.073 37.8083 174.565 37.3006 174.565 36.6744C174.565 36.0481 175.073 35.5405 175.698 35.5405C176.324 35.5405 176.831 36.0481 176.831 36.6744Z" fill="white"/>
<path d="M173.654 25.1719C173.654 25.1719 175.049 17.8846 178.302 19.28C181.555 20.6757 183.027 27.6525 179.929 28.1951C176.83 28.7378 174.429 27.2649 174.429 27.2649L173.654 25.1719Z" fill="black"/>
<path d="M173.693 27.265C173.693 27.265 179.077 31.7612 180.82 27.6138" stroke="black" stroke-width="1.33333" stroke-miterlimit="10" stroke-linecap="round"/>
<path d="M194.038 90.877L187.806 87.357" stroke="#424242" stroke-width="1.33333" stroke-miterlimit="10" stroke-linecap="round"/>
<path d="M52.5846 44.6531C59.3183 44.8367 64.8898 50.2345 65.2775 56.9652C65.5051 60.9228 63.9726 64.5241 61.3937 67.0649C61.0125 67.4402 60.8355 67.9754 60.9246 68.5031L61.8931 74.2392L55.934 70.7641C55.5946 70.5662 55.1947 70.4938 54.8095 70.5713C53.3527 70.8654 51.8093 70.9195 50.2184 70.6784C44.3313 69.7859 39.7382 64.9079 39.1953 58.9739C38.4716 51.0645 44.7838 44.4403 52.5846 44.6531Z" fill="#D3DDF7"/>
<path d="M51.4006 64.6041C51.4006 64.4436 51.4437 64.311 51.53 64.2059C51.6163 64.1012 51.7335 64.0485 51.8817 64.0485C52.0542 64.0485 52.1776 64.0982 52.252 64.1968C52.326 64.2957 52.3627 64.4314 52.3627 64.6041C52.3627 64.752 52.3226 64.8819 52.2428 64.993C52.1619 65.1042 52.042 65.1596 51.8817 65.1596C51.721 65.1596 51.601 65.11 51.5209 65.0114C51.4403 64.9128 51.4006 64.7771 51.4006 64.6041ZM51.6224 62.2707L51.5857 59.141C52.042 59.0298 52.4582 58.8849 52.8346 58.7058C53.2107 58.5269 53.5409 58.3202 53.8246 58.0853C54.1082 57.851 54.3457 57.5885 54.537 57.2982C54.7282 57.0085 54.8729 56.6964 54.9721 56.3632C55.0707 56.0296 55.1199 55.6781 55.1199 55.3075C55.1199 54.7767 54.9902 54.2766 54.7313 53.8074C54.4724 53.3385 54.1021 52.9587 53.6211 52.6687C53.14 52.3787 52.5665 52.2332 51.9003 52.2332C51.1845 52.2332 50.5217 52.4311 49.9109 52.8258C49.3001 53.2212 48.8343 53.8941 48.5139 54.8444L48.1807 54.6224C48.4643 53.7214 48.9396 53.0295 49.6058 52.5484C50.272 52.0666 51.0303 51.8259 51.8817 51.8259C52.6097 51.8259 53.2477 51.9806 53.797 52.2889C54.3457 52.5977 54.7744 53.0145 55.0829 53.5391C55.391 54.0637 55.5456 54.6533 55.5456 55.3075C55.5456 55.8015 55.4624 56.2646 55.2959 56.6964C55.1294 57.1288 54.8947 57.5236 54.5923 57.8816C54.2903 58.24 53.9234 58.5514 53.4913 58.8166C53.0595 59.0825 52.5723 59.2831 52.0298 59.4187L51.9927 62.2707H51.6224Z" fill="black"/>
</g>
</svg>
