<svg width="12" height="10" viewBox="0 0 12 10" fill="none" xmlns="http://www.w3.org/2000/svg">
<g id="Group">
<path id="Vector" d="M4.65039 4.8C4.65039 4.44196 4.79262 4.09858 5.0458 3.84541C5.29897 3.59223 5.64235 3.45 6.00039 3.45C6.35843 3.45 6.70181 3.59223 6.95498 3.84541C7.20816 4.09858 7.35039 4.44196 7.35039 4.8C7.35039 5.15804 7.20816 5.50142 6.95498 5.75459C6.70181 6.00777 6.35843 6.15 6.00039 6.15C5.64235 6.15 5.29897 6.00777 5.0458 5.75459C4.79262 5.50142 4.65039 5.15804 4.65039 4.8Z" fill="#4B4B5A"/>
<path id="Vector_2" fill-rule="evenodd" clip-rule="evenodd" d="M0 4.8C0 5.784 0.255 6.1146 0.765 6.7776C1.7832 8.1 3.4908 9.6 6 9.6C8.5092 9.6 10.2168 8.1 11.235 6.7776C11.745 6.1152 12 5.7834 12 4.8C12 3.816 11.745 3.4854 11.235 2.8224C10.2168 1.5 8.5092 0 6 0C3.4908 0 1.7832 1.5 0.765 2.8224C0.255 3.486 0 3.8166 0 4.8ZM6 2.55C5.40326 2.55 4.83097 2.78705 4.40901 3.20901C3.98705 3.63097 3.75 4.20326 3.75 4.8C3.75 5.39674 3.98705 5.96903 4.40901 6.39099C4.83097 6.81295 5.40326 7.05 6 7.05C6.59674 7.05 7.16903 6.81295 7.59099 6.39099C8.01295 5.96903 8.25 5.39674 8.25 4.8C8.25 4.20326 8.01295 3.63097 7.59099 3.20901C7.16903 2.78705 6.59674 2.55 6 2.55Z" fill="#4B4B5A"/>
</g>
</svg>
