<svg width="16" height="19" viewBox="0 0 16 19" fill="none" xmlns="http://www.w3.org/2000/svg">
  <path d="M14.6667 3.16663C14.8877 3.16663 15.0996 3.25442 15.2559 3.4107C15.4122 3.56698 15.5 3.77895 15.5 3.99996C15.5 4.22097 15.4122 4.43293 15.2559 4.58921C15.0996 4.74549 14.8877 4.83329 14.6667 4.83329H13.8333L13.8308 4.89246L13.0533 15.785C13.0234 16.2054 12.8352 16.599 12.5268 16.8863C12.2183 17.1736 11.8124 17.3333 11.3908 17.3333H4.60833C4.18678 17.3333 3.78089 17.1736 3.4724 16.8863C3.16392 16.599 2.97576 16.2054 2.94583 15.785L2.16833 4.89329L2.16667 4.83329H1.33333C1.11232 4.83329 0.900358 4.74549 0.744078 4.58921C0.587797 4.43293 0.5 4.22097 0.5 3.99996C0.5 3.77895 0.587797 3.56698 0.744078 3.4107C0.900358 3.25442 1.11232 3.16663 1.33333 3.16663H14.6667ZM9.66667 0.666626C9.88768 0.666626 10.0996 0.754423 10.2559 0.910704C10.4122 1.06698 10.5 1.27895 10.5 1.49996C10.5 1.72097 10.4122 1.93293 10.2559 2.08921C10.0996 2.2455 9.88768 2.33329 9.66667 2.33329H6.33333C6.11232 2.33329 5.90036 2.2455 5.74408 2.08921C5.5878 1.93293 5.5 1.72097 5.5 1.49996C5.5 1.27895 5.5878 1.06698 5.74408 0.910704C5.90036 0.754423 6.11232 0.666626 6.33333 0.666626H9.66667Z" fill="#EF3838"/>
</svg>
