<svg width="117" height="36" viewBox="0 0 117 36" fill="none" xmlns="http://www.w3.org/2000/svg">
  <path d="M81.302 7.59138H78.379V2.26238H81.302C82.772 2.26238 83.963 3.45638 83.963 4.92638C83.963 6.39638 82.772 7.59138 81.302 7.59138ZM83.618 8.93838L83.745 8.86038C85.116 8.00638 85.933 6.53638 85.933 4.92638C85.933 2.37238 83.856 0.295383 81.302 0.295383L76.408 0.283382V13.4344H78.379V9.55838H81.302C81.401 9.55838 81.503 9.55438 81.602 9.54938L81.696 9.54138L83.926 13.4424H86.192L83.618 8.93838Z" fill="black"/>
  <path d="M35.7808 9.0752V0.130196H17.8908L8.94482 9.0752H35.7808Z" fill="black"/>
  <path d="M8.945 9.07513L0 18.0201V35.9111H8.945L17.89 26.9661H8.945V9.07513Z" fill="black"/>
  <path d="M35.7806 26.9658V18.0208H26.8356L17.8906 26.9658H35.7806Z" fill="black"/>
  <path d="M64.2913 2.25457V6.31157H69.1523V8.28157H64.2913V11.4686H71.1853V13.4346H62.3203V0.28357H71.1853V2.25457H64.2913Z" fill="black"/>
  <path d="M56.9664 6.31079V6.87779C56.9664 8.05979 56.7984 9.11979 56.4694 10.0228C55.5994 12.4328 53.5914 13.7588 50.8154 13.7588C46.9644 13.7588 44.6694 11.1848 44.6694 6.87779C44.6694 2.57079 46.9644 -0.000210762 50.8154 -0.000210762C53.5914 -0.000210762 55.5994 1.32679 56.4694 3.73679C56.5184 3.86379 56.5604 3.99879 56.6014 4.13479H54.5114C53.8834 2.68079 52.6714 1.97079 50.8154 1.97079C48.0444 1.97079 46.6404 3.62179 46.6404 6.87779C46.6404 10.1378 48.0444 11.7878 50.8154 11.7878C52.7824 11.7878 54.0264 10.9918 54.6174 9.35379C54.7164 9.08179 54.7944 8.78679 54.8564 8.46279L54.8894 8.28179H50.9674V6.31079H56.9664Z" fill="black"/>
  <path d="M95.8902 6.17948L101.433 13.4385H98.8912L94.4492 7.61648L92.9502 9.11148V13.4385H90.9302V0.287477H92.9502V6.26148L98.9452 0.287477H101.802L95.8902 6.17948Z" fill="black"/>
  <path d="M110.24 11.7075C107.67 11.7075 106.134 9.90554 106.134 6.88354C106.134 3.85754 107.67 2.05454 110.24 2.05454C112.814 2.05454 114.346 3.85754 114.346 6.88354C114.346 9.90554 112.814 11.7075 110.24 11.7075ZM114.465 1.67654C113.923 1.14754 113.278 0.736539 112.564 0.457539C111.845 0.178538 111.061 0.0345383 110.24 0.0345383C108.602 0.0345383 107.103 0.617538 106.019 1.67654C105.153 2.52254 104.118 4.11554 104.118 6.88354C104.118 9.64654 105.153 11.2395 106.019 12.0855C107.103 13.1445 108.602 13.7275 110.24 13.7275C111.882 13.7275 113.381 13.1445 114.465 12.0855C115.331 11.2395 116.366 9.64654 116.366 6.88354C116.366 4.11554 115.331 2.52254 114.465 1.67654Z" fill="black"/>
  <path d="M47.3597 26.2735C47.6797 26.2735 47.9307 26.2025 48.1107 26.0595C48.2907 25.9165 48.3807 25.7225 48.3807 25.4765C48.3807 25.3005 48.3497 25.1625 48.2887 25.0615C48.2267 24.9605 48.1277 24.8835 47.9917 24.8315C47.8557 24.7785 47.6667 24.7365 47.4257 24.7055L47.0177 24.6535C46.6087 24.6045 46.2927 24.4635 46.0687 24.2285C45.8447 23.9935 45.7327 23.6745 45.7327 23.2695C45.7327 22.9585 45.8117 22.6925 45.9697 22.4735C46.1277 22.2535 46.3397 22.0885 46.6057 21.9795C46.8707 21.8695 47.1687 21.8145 47.4977 21.8145C48.0947 21.8145 48.5757 21.9375 48.9407 22.1835V22.9605C48.4927 22.6445 48.0227 22.4865 47.5307 22.4865C46.8587 22.4865 46.5237 22.7435 46.5237 23.2565C46.5237 23.4235 46.5497 23.5545 46.6027 23.6485C46.6547 23.7435 46.7427 23.8155 46.8657 23.8665C46.9887 23.9165 47.1617 23.9575 47.3857 23.9875L47.7747 24.0345C48.7097 24.1485 49.1777 24.6135 49.1777 25.4305C49.1777 25.7555 49.0957 26.0315 48.9307 26.2605C48.7657 26.4885 48.5417 26.6585 48.2587 26.7705C47.9757 26.8825 47.6557 26.9385 47.3007 26.9385C47.0147 26.9385 46.7497 26.9095 46.5037 26.8495C46.2577 26.7905 46.0157 26.6945 45.7787 26.5635V25.7865C46.2797 26.1115 46.8067 26.2735 47.3597 26.2735Z" fill="black"/>
  <path d="M58.0496 22.5893V26.8643H57.2656V22.5893H55.6716V21.8913H59.5906V22.5893H58.0496Z" fill="black"/>
  <path d="M69.8099 26.4058C69.4649 26.7788 68.9809 26.9658 68.3579 26.9658C67.7339 26.9658 67.2519 26.7788 66.9119 26.4058C66.5719 26.0328 66.4009 25.4798 66.4009 24.7458V21.8938H67.1919V24.7528C67.1919 25.2798 67.2849 25.6648 67.4719 25.9088C67.6579 26.1518 67.9539 26.2738 68.3579 26.2738C68.7569 26.2738 69.0549 26.1548 69.2499 25.9148C69.4449 25.6758 69.5429 25.2888 69.5429 24.7528V21.8938H70.3269V24.7458C70.3269 25.4798 70.1549 26.0328 69.8099 26.4058Z" fill="black"/>
  <path d="M80.2137 25.8433C80.4287 25.6243 80.5367 25.2593 80.5367 24.7503V24.0513C80.5367 23.5603 80.4237 23.1923 80.1977 22.9483C79.9707 22.7053 79.6607 22.5833 79.2657 22.5833H78.4217V26.1723H79.2657C79.6827 26.1723 79.9987 26.0633 80.2137 25.8433ZM77.6387 21.8913H79.2657C79.8977 21.8913 80.3987 22.0783 80.7707 22.4513C81.1417 22.8243 81.3267 23.3733 81.3267 24.0983V24.7043C81.3267 25.4243 81.1427 25.9643 80.7737 26.3243C80.4047 26.6843 79.9017 26.8643 79.2657 26.8643H77.6387V21.8913Z" fill="black"/>
  <path d="M88.48 21.8912H89.264V26.8643H88.48V21.8912Z" fill="black"/>
  <path d="M97.5163 25.9088C97.7183 26.1618 98.0233 26.2878 98.4323 26.2878C98.8443 26.2878 99.1523 26.1618 99.3543 25.9088C99.5563 25.6558 99.6573 25.2758 99.6573 24.7658V24.0418C99.6573 23.5318 99.5513 23.1448 99.3413 22.8788C99.1303 22.6138 98.8273 22.4808 98.4323 22.4808C98.0453 22.4808 97.7453 22.6148 97.5323 22.8828C97.3203 23.1498 97.2133 23.5368 97.2133 24.0418V24.7658C97.2133 25.2758 97.3143 25.6558 97.5163 25.9088ZM96.6633 22.8398C96.8283 22.4988 97.0623 22.2408 97.3653 22.0658C97.6683 21.8898 98.0233 21.8018 98.4323 21.8018C98.8403 21.8018 99.1963 21.8898 99.4993 22.0658C99.8023 22.2408 100.037 22.4998 100.203 22.8428C100.37 23.1848 100.454 23.5998 100.454 24.0878V24.7198C100.454 25.4488 100.273 26.0058 99.9103 26.3898C99.5483 26.7738 99.0553 26.9658 98.4323 26.9658C97.8083 26.9658 97.3163 26.7748 96.9563 26.3928C96.5963 26.0108 96.4163 25.4528 96.4163 24.7198V24.0878C96.4163 23.5958 96.4983 23.1798 96.6633 22.8398Z" fill="black"/>
</svg>
